# xmcd
#
# Track frame offsets: 
#        150
#        13031
#        24689
#        34725
#        44643
#        54613
#        66617
#        74910
#        83907
#        93802
#        103166
#        113813
#        127480
#        139539
#        151070
#        162054
#        173630
#        183473
#        193607
#        205136
#        218559
#        228396
#        238022
#        251033
#        264295
#        276975
#
# Disc length: 3910 seconds
#
# Revision: 0
# Processed by: cddbd v1.5.2PL0 Copyright (c) Steve Scherf et al.
# Submitted via: ExactAudioCopyFreeDBPlugin 1.0
#
DISCID=810f441a
DTITLE=Various Artist - Ike Turner: Trouble Up The Road
DYEAR=2012
DGENRE=R&B
TTITLE0=Ike And Tina Turner - I Idolize You
TTITLE1=Ike And Tina Turner - Letter From Tina
TTITLE2=Ike And Tina Turner - I'm Jealous
TTITLE3=Jackie Brenston with Ike Turner and His Kings Of Rhythm - Troubl
TTITLE3=e Up The Road
TTITLE4=Jackie Brenston With Ike Turner and His Kings Of Rhythm - You Ai
TTITLE4=n't The One
TTITLE5=Eloise Carter - My Man Rock Head
TTITLE6=Eloise Carter - I Need You
TTITLE7=Jimmy and Jean with Ike Turner's Orchestra - I Wanna Marry You
TTITLE8=Jimmy and Jean with Ike Turner's Orchestra - I Can't Believe
TTITLE9=Billy Gales - I'm Hurting
TTITLE10=Billy Gales - I'm Dreaming Of You
TTITLE11=Ike And Tina Turner - It's Gonna Work Out Fine
TTITLE12=Ike And Tina Turner - Won't You Forgive Me
TTITLE13=Mickey and Sylvia - Baby You're So Fine
TTITLE14=Mickey and Sylvia - Love Drops
TTITLE15=Ike And Tina Turner - Poor Fool
TTITLE16=Ike And Tina Turner - You Can't Blame Me
TTITLE17=Ernest Lane - What Kind Of Love
TTITLE18=Ernest Lane - Sliced Apples
TTITLE19=Albert King - Don't Throw Your Love On Me So Strong
TTITLE20=Albert King - This Morning
TTITLE21=Ike And Tina Turner - If
TTITLE22=Ike And Tina Turner - You Can't Love Two
TTITLE23=Ike And Tina Turner - I Had A Notion
TTITLE24=Ike And Tina Turner - Sleepless
TTITLE25=Ike And Tina Turner - Chances Are
EXTD=
EXTT0=
EXTT1=
EXTT2=
EXTT3=
EXTT4=
EXTT5=
EXTT6=
EXTT7=
EXTT8=
EXTT9=
EXTT10=
EXTT11=
EXTT12=
EXTT13=
EXTT14=
EXTT15=
EXTT16=
EXTT17=
EXTT18=
EXTT19=
EXTT20=
EXTT21=
EXTT22=
EXTT23=
EXTT24=
EXTT25=
PLAYORDER=
